<?xml version="1.0" encoding="UTF-8"?>
<svg width="982px" height="159px" viewBox="0 0 982 159" version="1.1" xmlns="http://www.w3.org/2000/svg" xmlns:xlink="http://www.w3.org/1999/xlink">
    <!-- Generator: Sketch 50 (54983) - http://www.bohemiancoding.com/sketch -->
    <title>bitmex-logo-alt</title>
    <desc>Created with Sketch.</desc>
    <defs></defs>
    <g id="Page-1" stroke="none" stroke-width="1" fill="none" fill-rule="evenodd">
        <g id="Artboard" transform="translate(-8.000000, -313.000000)" fill="#8F8888" fill-rule="nonzero">
            <g id="bitmex-logo-alt" transform="translate(8.000000, 313.000000)">
                <g id="layer101">
                    <path d="M482.874337,158.145579 C473.154644,155.349292 466.934041,149.368344 463.745981,139.736688 C462.501861,136.008305 462.346346,131.503175 462.035316,97.2486566 L461.802043,59.0327308 L454.026289,59.0327308 L446.328292,59.0327308 L446.328292,51.2652662 L446.328292,43.4978017 L454.104046,43.4978017 L461.8798,43.4978017 L461.8798,26.4093796 L461.8798,9.3209575 L470.821918,9.3209575 L479.764035,9.3209575 L479.764035,26.4093796 L479.764035,43.4978017 L497.64827,43.4978017 L515.532505,43.4978017 L515.532505,51.2652662 L515.532505,59.0327308 L497.64827,59.0327308 L479.764035,59.0327308 L479.764035,93.8309722 C479.764035,114.647777 480.075065,129.638984 480.541611,131.347826 C481.863489,135.93063 484.585003,139.27064 488.628395,141.367855 C493.682635,143.853444 502.780268,143.853444 509.622931,141.44553 C512.18893,140.513434 514.521657,139.814362 514.910444,139.814362 C515.299232,139.814362 515.454747,143.232047 515.376989,147.348803 L515.143717,154.960918 L510.478264,156.82511 C506.590387,158.456277 504.257661,158.766976 496.093119,158.922325 C489.717001,159.077675 485.129306,158.844651 482.874337,158.145579 Z" id="Shape"></path>
                    <path d="M0,156.82511 C0,156.203713 0.622060337,154.727894 1.39963576,153.407426 C2.17721118,152.164631 4.19890728,148.669272 5.83181566,145.639961 C7.46472405,142.688324 10.2639956,137.561798 12.052419,134.377137 C15.3959933,128.318515 22.8607174,114.880801 26.2820493,108.744504 C27.2928973,106.802638 33.4357431,95.8505129 39.8896191,84.2769907 C46.3434951,72.7811431 52.3308259,61.9066927 53.3416739,60.1978505 C54.2747644,58.4890083 56.8407633,53.8285296 59.0179745,49.9447973 C67.4157891,34.7205667 70.9148785,28.4289204 73.0143321,24.5451881 C74.2584528,22.370298 77.0577243,17.2437714 79.312693,13.2046898 C81.5676617,9.16560821 83.7448729,5.35955056 84.1336606,4.81582804 C85.3000238,3.41768442 177.287196,3.41768442 177.287196,4.89350269 C177.287196,5.35955056 176.354106,7.37909135 175.2655,9.24328285 C173.321561,12.7386419 171.45538,16.0786517 163.524111,30.5261358 C158.392113,39.924768 151.938237,51.5759648 148.128118,58.4890083 L145.251089,63.6932096 L116.791828,63.6932096 L88.2548104,63.7708842 L80.5568137,77.5192965 C72.3922718,92.1221299 63.683427,107.424035 46.3434951,138.10552 L35.6129543,156.902785 L19.0505978,156.902785 C9.9529654,156.902785 1.94393855,157.135809 1.24412067,157.368832 C0.466545253,157.679531 0,157.446507 0,156.82511 Z" id="Shape"></path>
                    <path d="M265.153219,80.7816317 L265.153219,3.80605765 L305.431626,4.11675623 C341.04458,4.34978017 346.176578,4.50512946 350.297727,5.74792379 C370.281416,11.6511969 381.011957,24.3121641 381.011957,42.2550073 C381.011957,49.1680508 379.612321,55.6927211 377.046322,60.741573 C374.713596,65.2467025 368.25972,71.8490474 362.894449,75.1890572 L358.306754,77.9853444 L360.950511,78.9174402 C372.614142,82.9565217 381.789532,90.3356131 386.143954,99.1128481 C388.709953,104.239375 389.098741,105.637518 389.409771,112.472887 C389.565286,116.744993 389.409771,121.871519 388.865468,124.201759 C386.143954,136.940401 376.346504,147.504152 362.583419,152.708354 C351.075303,157.058134 350.297727,157.135809 306.209201,157.446507 L265.153219,157.757206 L265.153219,80.7816317 Z M348.742577,139.581339 C363.594267,135.309233 371.136749,126.765022 371.136749,114.181729 C371.136749,101.676111 363.672025,93.5979482 348.198274,89.6365413 C344.232639,88.5490962 337.623248,88.3160723 313.20738,88.0053737 L283.037453,87.6170005 L283.037453,114.570103 L283.037453,141.44553 L313.596168,141.212506 C339.411672,140.901808 344.776942,140.668784 348.742577,139.581339 Z M340.811307,70.3732291 C355.196453,66.3341475 362.583419,57.7899365 362.661177,44.9736199 C362.738934,39.924768 362.427904,38.4489497 360.406208,34.4875427 C357.606936,29.1279922 352.552696,24.9335613 345.632275,22.370298 C341.200095,20.7391304 339.644944,20.6614558 312.041017,20.3507572 L283.037453,20.1177333 L283.037453,46.2940889 L283.037453,72.3927699 L309.70829,72.0043967 C331.091615,71.7713727 337.156703,71.4606742 340.811307,70.3732291 Z" id="Shape"></path>
                    <polygon id="Shape" points="411.337398 100.588666 411.337398 43.4978017 419.890728 43.4978017 428.444057 43.4978017 428.444057 100.588666 428.444057 157.679531 419.890728 157.679531 411.337398 157.679531"></polygon>
                    <path d="M534.97189,80.7816317 L534.97189,3.88373229 L549.668066,3.88373229 L564.286483,3.88373229 L587.069443,39.2256961 C599.588408,58.6443576 610.085676,74.56766 610.396706,74.56766 C610.785494,74.56766 621.282762,58.6443576 633.801726,39.2256961 L656.584686,3.88373229 L671.203104,3.88373229 L685.821522,3.88373229 L685.821522,80.7816317 L685.821522,157.679531 L672.213952,157.679531 L658.606382,157.679531 L658.606382,103.15193 L658.606382,48.6243283 L634.890332,84.1216414 C621.827065,103.617978 610.629979,119.618955 610.007918,119.618955 C609.385858,119.618955 598.499802,104.006351 585.747565,84.9760625 L562.575818,50.3331705 L562.342545,104.006351 L562.18703,157.679531 L548.57946,157.679531 L534.97189,157.679531 L534.97189,80.7816317 Z" id="Shape"></path>
                    <polygon id="Shape" points="713.814237 80.7816317 713.814237 3.88373229 770.966031 3.88373229 828.117824 3.88373229 828.117824 16.3116756 828.117824 28.739619 784.962388 28.739619 741.806952 28.739619 741.806952 48.1582804 741.806952 67.5769419 780.296936 67.5769419 818.786919 67.5769419 818.786919 80.0048852 818.786919 92.4328285 780.296936 92.4328285 741.806952 92.4328285 741.806952 112.628236 741.806952 132.823644 785.739964 132.823644 829.672975 132.823644 829.672975 145.251588 829.672975 157.679531 771.743606 157.679531 713.814237 157.679531"></polygon>
                    <path d="M838.226305,157.135809 C838.226305,156.747435 850.667511,139.192965 865.90799,118.065462 C881.07071,96.937958 893.356402,79.3058134 893.123129,78.8397655 C892.967614,78.3737176 881.07071,61.5183195 866.685565,41.3229116 C852.30042,21.2051783 840.559031,4.50512946 840.559031,4.27210552 C840.559031,4.03908158 847.86824,3.88373229 856.810357,3.88373229 L873.061683,3.88373229 L891.645736,30.6814851 C901.831974,45.3619932 910.385304,57.4792379 910.618576,57.4792379 C910.851849,57.4792379 919.405179,45.4396678 929.669174,30.6814851 L948.253227,3.96140694 L964.426795,3.88373229 L980.600364,3.88373229 L978.811941,6.4469956 C977.801093,7.92281387 965.826431,24.7005374 952.141104,43.8085002 C938.455776,62.9941378 927.25869,78.6844162 927.25869,78.8397655 C927.25869,78.9951148 939.544382,96.3165608 954.47383,117.36639 C969.481036,138.416219 981.766727,156.048363 981.922242,156.669761 C982.155515,157.446507 979.045213,157.679531 965.981946,157.679531 L949.808378,157.601856 L935.81202,137.328774 C928.114023,126.221299 919.171906,113.249634 915.906089,108.589155 L909.918758,100.122618 L889.857313,128.939912 L869.795867,157.679531 L854.011086,157.679531 C845.302241,157.679531 838.226305,157.446507 838.226305,157.135809 Z" id="Shape"></path>
                    <path d="M69.2042125,156.359062 C69.2819701,155.970689 76.3579064,142.843674 85.0667511,126.998046 L100.92929,98.258427 L129.621823,97.8700537 L158.236598,97.4816805 L172.310713,72.6257938 C180.00871,58.9550562 191.827857,38.1382511 198.437248,26.4093796 L210.567424,5.04885198 L228.062871,4.81582804 L245.636076,4.66047875 L242.681289,9.86468002 C241.048381,12.8163166 231.484203,29.9824133 221.45348,48.1582804 C211.345,66.3341475 193.61628,98.1030777 182.108164,118.842208 L161.191385,156.514411 L115.236677,156.747435 C89.8877187,156.82511 69.2042125,156.669761 69.2042125,156.359062 Z" id="Shape"></path>
                    <polygon id="Shape" points="409.782247 9.70933073 409.782247 0 419.890728 0 429.999208 0 429.999208 9.70933073 429.999208 19.4186615 419.890728 19.4186615 409.782247 19.4186615"></polygon>
                </g>
                <g id="layer102" transform="translate(0.000000, 3.728383)">
                    <path d="M0,153.096727 C0,152.47533 0.622060337,150.999511 1.39963576,149.679043 C2.17721118,148.436248 4.19890728,144.940889 5.83181566,141.911578 C7.46472405,138.959941 10.2639956,133.833415 12.052419,130.648754 C15.3959933,124.590132 22.8607174,111.152418 26.2820493,105.016121 C27.2928973,103.074255 33.4357431,92.1221299 39.8896191,80.5486077 C46.3434951,69.0527601 52.3308259,58.1783097 53.3416739,56.4694675 C54.2747644,54.7606253 56.8407633,50.1001466 59.0179745,46.2164143 C67.4157891,30.9921837 70.9148785,24.7005374 73.0143321,20.8168051 C74.2584528,18.641915 77.0577243,13.5153884 79.312693,9.47630679 C81.5676617,5.43722521 83.7448729,1.63116756 84.1336606,1.08744504 C85.3000238,-0.310698583 177.287196,-0.310698583 177.287196,1.16511969 C177.287196,1.63116756 176.354106,3.65070835 175.2655,5.51489985 C173.321561,9.01025892 171.45538,12.3502687 163.524111,26.7977528 C158.392113,36.196385 151.938237,47.8475818 148.128118,54.7606253 L145.251089,59.9648266 L116.791828,59.9648266 L88.2548104,60.0425012 L80.5568137,73.7909135 C72.3922718,88.3937469 63.683427,103.695652 46.3434951,134.377137 L35.6129543,153.174402 L19.0505978,153.174402 C9.9529654,153.174402 1.94393855,153.407426 1.24412067,153.640449 C0.466545253,153.951148 0,153.718124 0,153.096727 Z" id="Shape"></path>
                    <path d="M69.2042125,152.630679 C69.2819701,152.242306 76.3579064,139.115291 85.0667511,123.269663 L100.92929,94.530044 L129.621823,94.1416707 L158.236598,93.7532975 L172.310713,68.8974108 C180.00871,55.2266732 191.827857,34.4098681 198.437248,22.6809966 L210.567424,1.32046898 L228.062871,1.08744504 L245.636076,0.93209575 L242.681289,6.13629702 C241.048381,9.08793356 231.484203,26.2540303 221.45348,44.4298974 C211.345,62.6057645 193.61628,94.3746947 182.108164,115.113825 L161.191385,152.786028 L115.236677,153.019052 C89.8877187,153.096727 69.2042125,152.941378 69.2042125,152.630679 Z" id="Shape"></path>
                </g>
                <g id="layer103" transform="translate(0.000000, 3.728383)">
                    <path d="M0,153.096727 C0,152.47533 0.622060337,150.999511 1.39963576,149.679043 C2.17721118,148.436248 4.19890728,144.940889 5.83181566,141.911578 C7.46472405,138.959941 10.2639956,133.833415 12.052419,130.648754 C15.3959933,124.590132 22.8607174,111.152418 26.2820493,105.016121 C27.2928973,103.074255 33.4357431,92.1221299 39.8896191,80.5486077 C46.3434951,69.0527601 52.3308259,58.1783097 53.3416739,56.4694675 C54.2747644,54.7606253 56.8407633,50.1001466 59.0179745,46.2164143 C67.4157891,30.9921837 70.9148785,24.7005374 73.0143321,20.8168051 C74.2584528,18.641915 77.0577243,13.5153884 79.312693,9.47630679 C81.5676617,5.43722521 83.7448729,1.63116756 84.1336606,1.08744504 C85.3000238,-0.310698583 177.287196,-0.310698583 177.287196,1.16511969 C177.287196,1.63116756 176.354106,3.65070835 175.2655,5.51489985 C173.321561,9.01025892 171.45538,12.3502687 163.524111,26.7977528 C158.392113,36.196385 151.938237,47.8475818 148.128118,54.7606253 L145.251089,59.9648266 L116.791828,59.9648266 L88.2548104,60.0425012 L80.5568137,73.7909135 C72.3922718,88.3937469 63.683427,103.695652 46.3434951,134.377137 L35.6129543,153.174402 L19.0505978,153.174402 C9.9529654,153.174402 1.94393855,153.407426 1.24412067,153.640449 C0.466545253,153.951148 0,153.718124 0,153.096727 Z" id="Shape"></path>
                </g>
            </g>
        </g>
    </g>
</svg>