<svg id="Vrstva_1" data-name="Vrstva 1" xmlns="http://www.w3.org/2000/svg" viewBox="0 0 722.28 204.66"><defs><style>.cls-1{fill:#231f20;fill-rule:evenodd;}</style></defs><title>logo-huge</title><path class="cls-1" d="M641.41,213.79h26.26L681,248.62l0.18-15.52a9.74,9.74,0,0,0-.45-3.29,5,5,0,0,0-2.17-2.3V213.79H703.4V227.5a4.75,4.75,0,0,0-2.08,2.17,9.48,9.48,0,0,0-.54,3.61v57.84H677.32l-14.26-34.74H662.7v13.44a22.6,22.6,0,0,0,.36,4.92,4.89,4.89,0,0,0,2.35,2.66v13.71h-24V277.4a5.06,5.06,0,0,0,2.26-2.21,11.73,11.73,0,0,0,.36-3.47V233.46a10.82,10.82,0,0,0-.5-3.56,4.71,4.71,0,0,0-2.12-2.39V213.79Z" transform="translate(-59.81 -195.31)"/><path class="cls-1" d="M604.42,213.79h29.41v13.53a5.82,5.82,0,0,0-2.21,2.62,19.44,19.44,0,0,0-.41,5v34.38a19.22,19.22,0,0,0,.41,5.14,12.39,12.39,0,0,0,2.21,3.16v13.53H604.6l-0.18-13.71a5,5,0,0,0,2.08-2.44,10.37,10.37,0,0,0,.54-3.61V233.28a10.93,10.93,0,0,0-.45-3.47,4.49,4.49,0,0,0-2.17-2.3V213.79Z" transform="translate(-59.81 -195.31)"/><path class="cls-1" d="M539.72,269.13V235.86q0-12.79,7.31-18.38,6.86-5.23,21.56-5.23T590,217.31q7.4,5.57,7.4,18.56v33.26q0,12.25-6.86,17.93t-21.93,5.68q-15.16,0-22-5.68t-6.86-17.93h0ZM573.2,270V235.16a8.76,8.76,0,0,0-.81-4.23A4,4,0,0,0,568.6,229a3.92,3.92,0,0,0-3.65,1.71,8.38,8.38,0,0,0-1,4.41V270a7.4,7.4,0,0,0,1.13,4.36A4.08,4.08,0,0,0,568.6,276a4,4,0,0,0,3.43-1.62A7.23,7.23,0,0,0,573.2,270Z" transform="translate(-59.81 -195.31)"/><path class="cls-1" d="M509,242.12l0.18-7c0-2.27-.36-3.85-1.08-4.75a4.17,4.17,0,0,0-3.43-1.34q-4.42,0-4.42,6.12V270c0,2.33.44,4,1.29,4.86A4.22,4.22,0,0,0,504.8,276a3.77,3.77,0,0,0,3.46-1.53,8.32,8.32,0,0,0,1-4.42V258.72H532.5v25.72a37.25,37.25,0,0,1-14.26,6.68,54.84,54.84,0,0,1-13.35,1.62q-14.89,0-21.83-5.86t-6.95-18.47V234.6q0-10.71,6.32-16.21,6.95-6.14,21.74-6.14a52,52,0,0,1,16.06,2.6,50.89,50.89,0,0,1,12.27,5.85v21.41H509Z" transform="translate(-59.81 -195.31)"/><path class="cls-1" d="M405.46,213.79h66.59v34.83H455v-13a8.56,8.56,0,0,0-.45-3.16,3.6,3.6,0,0,0-3.61-2.35l-0.18,40.69a11.64,11.64,0,0,0,.54,4.38,6.12,6.12,0,0,0,2.08,2.21v13.71H424.14V277.4a4.68,4.68,0,0,0,2.17-2.75,16.4,16.4,0,0,0,.45-4.2V230.12q-2.8,0-3.61,1.53a9.9,9.9,0,0,0-.81,4.51v12.45H405.46V213.79Z" transform="translate(-59.81 -195.31)"/><path class="cls-1" d="M371.63,213.79H401v13.53a5.82,5.82,0,0,0-2.21,2.62,19.44,19.44,0,0,0-.41,5v34.38a19.22,19.22,0,0,0,.41,5.14,12.39,12.39,0,0,0,2.21,3.16v13.53H371.81l-0.18-13.71A5,5,0,0,0,373.7,275a10.37,10.37,0,0,0,.54-3.61V233.28a10.93,10.93,0,0,0-.45-3.47,4.49,4.49,0,0,0-2.17-2.3V213.79Z" transform="translate(-59.81 -195.31)"/><path class="cls-1" d="M340.59,291.11H303.06V277.4a4.06,4.06,0,0,0,2.3-2,9.48,9.48,0,0,0,.68-4V235.44q0-4.78-.59-6.14a3.25,3.25,0,0,0-2.39-1.8V213.79h35.28a80.76,80.76,0,0,1,10.47.54,18.57,18.57,0,0,1,7.13,2.44,14.93,14.93,0,0,1,6.23,7.4,25.15,25.15,0,0,1,1.71,9.65q0,13.53-12.18,16.78a14.74,14.74,0,0,1,9.11,4.69q4.33,4.87,4.33,13.62A31.72,31.72,0,0,1,364,278a18.35,18.35,0,0,1-5,7.94,20.89,20.89,0,0,1-8.57,4.24,45,45,0,0,1-9.93.9h0Zm-10.38-61.35v14h3.16q3.7-.36,5.1-2t1.4-6.45a6.09,6.09,0,0,0-2-4.15q-1.67-1.35-5.73-1.35h-1.89Zm0,28.42v16.87h2.62q4.69,0,6.23-2.71,1.17-2,1.17-7.31,0-3.79-2.53-5.5a10.13,10.13,0,0,0-5.59-1.35h-1.89Z" transform="translate(-59.81 -195.31)"/><path class="cls-1" d="M571.21,312.14h26.26L610.82,347,611,331.44a9.74,9.74,0,0,0-.45-3.29,5,5,0,0,0-2.17-2.3V312.14H633.2v13.71a4.76,4.76,0,0,0-2.08,2.17,9.48,9.48,0,0,0-.54,3.61v57.84H607.12l-14.26-34.74h-0.36v13.44a22.61,22.61,0,0,0,.36,4.92,4.89,4.89,0,0,0,2.35,2.66v13.71h-24V375.75a5.06,5.06,0,0,0,2.26-2.21,11.72,11.72,0,0,0,.36-3.47V331.8a10.82,10.82,0,0,0-.5-3.56,4.71,4.71,0,0,0-2.12-2.39V312.14Z" transform="translate(-59.81 -195.31)"/><path class="cls-1" d="M505.62,367.48V334.21q0-12.79,7.31-18.38,6.86-5.23,21.56-5.23t21.38,5.05q7.4,5.57,7.4,18.56v33.26q0,12.25-6.86,17.93t-21.93,5.68q-15.16,0-22-5.68t-6.86-17.93h0Zm33.47,0.89V333.5a8.76,8.76,0,0,0-.81-4.23,4,4,0,0,0-3.79-1.89,3.92,3.92,0,0,0-3.65,1.71,8.38,8.38,0,0,0-1,4.41v34.86a7.4,7.4,0,0,0,1.13,4.36,4.08,4.08,0,0,0,3.56,1.58,4,4,0,0,0,3.43-1.62A7.23,7.23,0,0,0,539.09,368.36Z" transform="translate(-59.81 -195.31)"/><path class="cls-1" d="M436.5,312.14h36.81q9.29,0,14.62,2.71,9.38,4.78,9.38,17.68a24.64,24.64,0,0,1-1.8,10.29q-2.71,6-9.83,7.85,5.5,1.53,7.49,3.7,2.71,3,2.71,9.38v5.77a12.58,12.58,0,0,0,.5,4,4.6,4.6,0,0,0,2.39,2.39v13.53H473a29,29,0,0,1-1.22-7.17q-0.32-4.56-.32-10v-5.77a7.8,7.8,0,0,0-1.08-4.51q-1.89-2.71-7-2.71v11.1a7,7,0,0,0,.72,3.34,6,6,0,0,0,1.89,2.17v13.53H436.5V376.11a5.42,5.42,0,0,0,2.17-2.93,20.63,20.63,0,0,0,.45-5v-36.9a8.81,8.81,0,0,0-.5-3.38,4.63,4.63,0,0,0-2.12-2V312.14h0Zm26.8,15.79v15.88h2.26q4.15,0,5.77-2.26a9.79,9.79,0,0,0,1.35-5.68q0-7.94-6.59-7.94h-2.8Z" transform="translate(-59.81 -195.31)"/><path class="cls-1" d="M417.28,312.14l10,50.17q1.35,6.95,1.71,8.3,1.08,3.88,3.61,5.14v13.71h-30.5V375.75q2.62-.81,2.62-4.06v-2.53H392.92l-0.45,2.53a4.65,4.65,0,0,0,1.08,2.84,4.16,4.16,0,0,0,2.26,1.22v13.71H369.19V375.75a6.46,6.46,0,0,0,2.17-3.16,38,38,0,0,0,1.35-5.68l10.2-54.77h34.38Zm-14.8,42-4.06-22.92-3.88,22.92h7.94Z" transform="translate(-59.81 -195.31)"/><path class="cls-1" d="M340.59,389.46H303.06V375.75a4.06,4.06,0,0,0,2.3-2,9.48,9.48,0,0,0,.68-4V333.79q0-4.78-.59-6.14a3.25,3.25,0,0,0-2.39-1.8V312.14h35.28a80.78,80.78,0,0,1,10.47.54,18.57,18.57,0,0,1,7.13,2.44,14.93,14.93,0,0,1,6.23,7.4,25.15,25.15,0,0,1,1.71,9.65q0,13.53-12.18,16.78a14.74,14.74,0,0,1,9.11,4.69q4.33,4.87,4.33,13.62a31.72,31.72,0,0,1-1.08,9.11,18.35,18.35,0,0,1-5,7.94,20.89,20.89,0,0,1-8.57,4.24,45,45,0,0,1-9.93.9h0Zm-10.38-61.35v14h3.16q3.7-.36,5.1-2t1.4-6.45a6.09,6.09,0,0,0-2-4.15q-1.67-1.35-5.73-1.35h-1.89Zm0,28.42V373.4h2.62q4.69,0,6.23-2.71,1.17-2,1.17-7.31,0-3.79-2.53-5.5a10.13,10.13,0,0,0-5.59-1.35h-1.89Z" transform="translate(-59.81 -195.31)"/><path class="cls-1" d="M736.28,343.07h18.19l4.76,19,5-19h17.81v8.23a2.79,2.79,0,0,0-1.27,1.22,5.43,5.43,0,0,0-.35,2.25v22a12.87,12.87,0,0,0,.22,2.84,2.94,2.94,0,0,0,1.41,1.6v8.23H765v-8.23a3.34,3.34,0,0,0,1.27-1.54,8.72,8.72,0,0,0,.3-2.68V364.18l-6.33,25.28h-4.55l-6.66-25.28L749,376.79l-0.11.7a6.25,6.25,0,0,0,.32,2.33,3.27,3.27,0,0,0,1.41,1.41v8.23H736.28v-8.23a3,3,0,0,0,1.16-1.41,5.86,5.86,0,0,0,.3-2V354.76a6.78,6.78,0,0,0-.27-2.14,2.53,2.53,0,0,0-1.19-1.33v-8.23Z" transform="translate(-59.81 -195.31)"/><path class="cls-1" d="M696.82,376.27v-20q0-7.67,4.39-11,4.11-3.14,12.94-3.14t12.83,3q4.44,3.34,4.44,11.13v20q0,7.35-4.11,10.76t-13.16,3.41q-9.1,0-13.21-3.41t-4.11-10.76h0Zm20.08,0.53V355.89a5.26,5.26,0,0,0-.49-2.54,2.4,2.4,0,0,0-2.27-1.14,2.35,2.35,0,0,0-2.19,1,5,5,0,0,0-.62,2.64V376.8a4.44,4.44,0,0,0,.68,2.62,2.45,2.45,0,0,0,2.14.95,2.38,2.38,0,0,0,2.06-1A4.33,4.33,0,0,0,716.9,376.8Z" transform="translate(-59.81 -195.31)"/><path class="cls-1" d="M678.41,360.06l0.11-4.2a4.68,4.68,0,0,0-.65-2.85,2.5,2.5,0,0,0-2.06-.8q-2.65,0-2.65,3.67V376.8a4.24,4.24,0,0,0,.78,2.91,2.53,2.53,0,0,0,1.93.65,2.26,2.26,0,0,0,2.08-.92,5,5,0,0,0,.58-2.65V370h14v15.43a22.34,22.34,0,0,1-8.55,4,32.9,32.9,0,0,1-8,1q-8.93,0-13.1-3.52t-4.17-11.08V355.55q0-6.43,3.79-9.73,4.17-3.68,13-3.68a31.2,31.2,0,0,1,9.64,1.56,30.53,30.53,0,0,1,7.36,3.51v12.85H678.41Z" transform="translate(-59.81 -195.31)"/><path class="cls-1" d="M647.55,377.93a6.29,6.29,0,0,1,6.23,6.23,6.14,6.14,0,0,1-1.79,4.44,5.94,5.94,0,0,1-4.44,1.84,6,6,0,0,1-4.41-1.81,6.07,6.07,0,0,1-1.81-4.47A6.28,6.28,0,0,1,647.55,377.93Z" transform="translate(-59.81 -195.31)"/><path class="cls-1" d="M224.46,286.6A61.15,61.15,0,0,1,234,257.85l-21.32-20.71a37.74,37.74,0,0,1-23.18,9.27A38.74,38.74,0,0,1,167,242.09a43,43,0,0,1-22.56,4.33,39.94,39.94,0,0,1-21.94-8.34l-21.32,20.4a64.76,64.76,0,0,1,8.65,28.12q0.31,6.8-4,18.85a102.75,102.75,0,0,0-3.71,11.43q-0.93,4.95-1.24,7.73a35.43,35.43,0,0,0,7.42,22.87q5.87,7.73,19.78,16.69,14.84,7.42,22.87,9.27a14.45,14.45,0,0,1,2.32,1.08,14.4,14.4,0,0,0,2.32,1.08l4.33,1.85q5.25,3.09,7.11,6.18a19.5,19.5,0,0,1,7.11-6.18q4-1.54,5.87-2.47a19.31,19.31,0,0,0,3.4-1.55q1.85-.62,4.64-1.85l6.8-2.47a47.8,47.8,0,0,0,11.43-4.94q13.29-9,19.47-16.38a37.38,37.38,0,0,0,7.73-23.18q-0.62-5.87-5.25-18.54-4.33-12.67-3.71-19.47h0Zm-98.32-74.24a6.84,6.84,0,0,1-.21,9.68L83.42,262.7a6.84,6.84,0,0,1-9.68-.21l-3.88-4.06a6.85,6.85,0,0,1,2.18-11l17.68-7.79L77.35,226.7a15.35,15.35,0,1,1,12.89-12.33l12.37,12.93L111.18,210a6.85,6.85,0,0,1,11.08-1.7l3.88,4.06h0ZM112.92,362.69q4.66,3.67,10.67,7.54l0.56,0.28L97,397.7,70.87,400l2.26-26.09L99.06,348a43.89,43.89,0,0,0,2.52,3.7,51.84,51.84,0,0,0,6.18,6.66l-3.9,3.89,4.76,4.76,4.29-4.29h0Zm108.31-.22,4.51,4.51,4.76-4.76-4.13-4.13a63.11,63.11,0,0,0,5.88-6.08,44.2,44.2,0,0,0,2.85-4.24l26.12,26.12L263.49,400l-26.09-2.26-27.21-27.21,0.4-.26q6-4,10.63-7.76h0Zm-12-151,3.88-4.06a6.85,6.85,0,0,1,11.08,1.7l8.57,17.32,12.37-12.93A15.35,15.35,0,1,1,258,225.85L245.6,238.79l17.68,7.79a6.85,6.85,0,0,1,2.19,11l-3.88,4.06a6.84,6.84,0,0,1-9.68.21L209.4,221.18a6.84,6.84,0,0,1-.21-9.68h0ZM163,310a32.53,32.53,0,0,1,3.61.79,52.56,52.56,0,0,1,9.94,3.14c3.59,1.61,8.18,4.67,7.33,10-1.52,9.56-15.06,6.85-22,5-1-.28-2.44-0.71-3.47-0.88L163,310h0Zm6.11-24.67a26.88,26.88,0,0,1,3.06.66,39.64,39.64,0,0,1,8.46,2.75c3,1.4,6.54,4.16,5.79,8.79-0.7,4.33-3.86,6.26-8.64,6.37-4.62.11-8.64-1.24-12.75-2.21l4.08-16.36h0Zm-6-11.56,3.37-13.43,8.12,2.05c0,0.76-1.31,5.56-1.59,6.65s-1.58,6-1.61,6.57l6.5,1.5a23.83,23.83,0,0,0,.87-3.29l1.64-6.59a28,28,0,0,1,.83-3.2l8.11,2c0.06,1-3.19,12.27-3.25,13.54a19.65,19.65,0,0,1,2.72,1c0.85,0.34,1.7.69,2.51,1.07,4.55,2.14,9.44,5.42,10.92,10.84s-0.52,12.47-5.09,15.75a14.72,14.72,0,0,1-5,2.22c0.54,0.64,6.86,3,8.45,9.65,1.18,5-.89,11-2.95,14.49a15.61,15.61,0,0,1-10.59,7.5,37.1,37.1,0,0,1-12.51,0c-1.32-.18-2.65-0.5-3.93-0.63L167.2,355,159,353c0-.94,3.21-12.44,3.25-13.41l-6.45-1.65c-0.26.45-3,12.12-3.42,13.44l-8.2-2,3.39-13.69-16.51-4.19,4-9.34c4.17,0.59,8.69,3.86,10-1.23l8.47-34c0.33-1.35.8-2.5,0.37-4a3.89,3.89,0,0,0-2.16-2.5,40.81,40.81,0,0,0-7.45-2l2.21-8.75C147.51,269.76,161.78,273.7,163.08,273.73Z" transform="translate(-59.81 -195.31)"/></svg>