<!DOCTYPE svg PUBLIC "-//W3C//DTD SVG 20010904//EN" "http://www.w3.org/TR/2001/REC-SVG-20010904/DTD/svg10.dtd">
<svg version="1.0" xmlns="http://www.w3.org/2000/svg" width="345px" height="98px" viewBox="0 0 3450 980" preserveAspectRatio="xMidYMid meet">
<g id="layer101" fill="#231f20" stroke="none">
 <path d="M60 919 l0 -61 64 -66 65 -67 25 24 c17 16 24 31 20 43 -5 16 -1 18 18 13 15 -3 32 2 48 16 l24 21 -71 69 -71 69 -61 0 -61 0 0 -61z"/>
 <path d="M786 910 l-71 -70 25 -20 c16 -13 33 -18 48 -15 19 5 23 2 18 -12 -5 -18 24 -63 41 -63 5 0 35 26 67 59 57 57 58 60 63 125 l6 66 -63 0 -62 0 -72 -70z"/>
 <path d="M1165 894 c9 -64 9 -237 0 -291 l-7 -43 126 0 c121 0 128 1 151 25 33 32 35 105 5 135 -11 11 -16 20 -10 20 5 0 17 14 26 32 22 42 13 103 -19 136 -23 22 -34 24 -152 30 l-127 5 7 -49z m168 -66 c13 -20 2 -48 -18 -48 -11 0 -15 10 -15 36 0 37 14 42 33 12z m-3 -143 c10 -12 10 -18 0 -30 -19 -23 -30 -18 -30 15 0 33 11 38 30 15z"/>
 <path d="M1480 913 c0 -16 14 -101 31 -190 l32 -163 87 0 87 0 32 148 c18 81 35 166 38 190 l5 42 -81 0 -81 0 0 -38 c0 -21 5 -43 12 -50 9 -9 6 -12 -14 -12 -24 0 -25 2 -20 50 l5 50 -67 0 c-65 0 -66 0 -66 -27z m150 -180 c0 -22 -2 -25 -10 -13 -13 20 -13 40 0 40 6 0 10 -12 10 -27z"/>
 <path d="M1805 750 l0 -190 117 0 c109 0 119 2 145 24 24 21 28 32 28 74 0 33 -6 56 -17 69 -15 16 -16 21 -4 34 9 8 17 48 22 97 l7 82 -66 0 -65 0 -7 -70 c-4 -39 -12 -73 -17 -76 -6 -4 -7 20 -3 70 l7 76 -73 0 -74 0 0 -190z m165 -70 c0 -10 -7 -23 -15 -30 -13 -11 -15 -7 -15 23 0 28 3 35 15 31 8 -4 15 -14 15 -24z"/>
 <path d="M2184 931 c-46 -20 -54 -47 -54 -184 0 -73 5 -137 11 -149 34 -63 224 -63 258 0 6 12 11 77 11 151 0 123 -1 131 -24 158 -22 25 -31 28 -103 30 -43 2 -88 -1 -99 -6z m101 -187 c0 -81 -3 -99 -15 -99 -12 0 -16 18 -18 89 -3 97 1 120 21 113 8 -2 12 -32 12 -103z"/>
 <path d="M2445 750 l0 -190 66 0 66 0 26 68 26 67 -6 -67 -6 -68 68 0 67 0 -7 43 c-4 23 -9 108 -11 190 l-5 147 -59 0 -58 0 -28 -70 c-15 -38 -29 -70 -31 -70 -2 0 0 32 3 70 l7 70 -59 0 -59 0 0 -190z"/>
 <path d="M2780 925 c-18 -22 -1 -50 31 -50 20 0 24 5 24 30 0 23 -5 31 -21 33 -11 2 -27 -4 -34 -13z"/>
 <path d="M2882 924 c-20 -14 -22 -24 -22 -104 0 -80 2 -90 22 -104 26 -19 72 -20 117 -5 28 10 31 15 31 50 0 39 0 39 -39 39 -33 0 -40 -4 -44 -22 -2 -13 -4 6 -4 42 0 36 2 53 4 38 4 -25 8 -28 44 -28 l39 0 0 43 c0 37 -4 46 -25 55 -36 17 -97 15 -123 -4z"/>
 <path d="M3062 924 c-20 -14 -22 -24 -22 -104 0 -80 2 -90 22 -104 12 -9 41 -16 63 -16 22 0 51 7 63 16 20 14 22 24 22 104 0 80 -2 90 -22 104 -12 9 -41 16 -63 16 -22 0 -51 -7 -63 -16z m65 -136 c-2 -18 -4 -4 -4 32 0 36 2 50 4 33 2 -18 2 -48 0 -65z"/>
 <path d="M3230 820 l0 -120 45 0 c28 0 47 5 49 13 16 51 18 53 28 20 8 -31 11 -33 53 -33 l45 0 0 120 0 120 -44 0 c-26 0 -46 -5 -49 -12 -4 -10 -6 -10 -6 0 -2 25 -31 11 -40 -20 l-9 -33 -1 33 c-1 30 -3 32 -36 32 l-35 0 0 -120z"/>
 <path d="M500 896 c-6 -8 -42 -27 -80 -41 -193 -74 -251 -168 -201 -324 26 -79 26 -107 1 -173 l-20 -53 48 -48 49 -48 61 20 c52 18 69 19 104 10 56 -14 56 -14 105 0 47 13 106 3 150 -26 24 -16 26 -15 75 34 l50 51 -21 56 c-26 71 -27 117 -1 191 25 74 25 108 -1 162 -26 54 -105 112 -194 144 -36 12 -74 31 -85 41 -23 22 -24 22 -40 4z m24 -166 c5 -28 8 -30 51 -30 35 0 52 -6 70 -25 31 -30 33 -78 6 -102 -19 -16 -19 -17 5 -36 38 -29 30 -75 -18 -106 -32 -21 -35 -26 -28 -52 5 -18 5 -31 -2 -35 -12 -8 -28 14 -28 39 0 10 -8 17 -18 17 -27 0 -31 -8 -22 -40 6 -21 4 -30 -6 -34 -9 -3 -17 6 -22 27 -5 18 -13 31 -18 31 -5 -1 -24 -5 -41 -9 -26 -5 -33 -3 -33 9 0 8 9 18 20 21 25 8 25 26 -1 130 -19 77 -23 84 -48 87 -37 4 -33 30 7 40 31 8 32 11 26 43 -5 27 -3 35 9 35 8 0 17 -13 21 -31 7 -39 42 -38 39 1 -4 54 20 70 31 20z"/>
 <path d="M505 651 c-32 -7 -33 -8 -21 -63 9 -43 27 -48 82 -22 27 13 34 22 34 45 0 43 -28 55 -95 40z"/>
 <path d="M517 523 c-11 -3 -16 -11 -13 -21 3 -9 8 -30 12 -45 6 -25 9 -27 38 -21 35 7 66 31 66 50 0 34 -48 51 -103 37z"/>
 <path d="M2076 470 c-24 -4 -49 -18 -63 -34 -22 -25 -23 -36 -23 -160 0 -118 2 -134 20 -154 42 -45 148 -51 226 -14 33 15 34 18 34 74 l0 58 -64 0 -65 0 -3 -32 c-2 -18 -7 -33 -13 -33 -6 0 -11 43 -13 103 -2 86 0 102 13 102 11 0 15 -11 15 -40 l0 -40 65 0 65 0 0 68 0 69 -37 16 c-49 21 -108 27 -157 17z"/>
 <path d="M2382 470 c-77 -12 -87 -30 -90 -183 -3 -123 -2 -134 18 -159 43 -55 187 -62 236 -13 23 23 24 30 24 162 -1 143 -5 159 -45 180 -29 15 -94 21 -143 13z m66 -190 c-4 -134 -22 -135 -26 -2 -2 87 0 102 13 102 13 0 15 -15 13 -100z"/>
 <path d="M1160 431 c0 -22 5 -43 10 -46 6 -3 10 -50 10 -105 0 -55 -4 -102 -10 -105 -5 -3 -10 -24 -10 -46 l0 -39 115 0 c120 0 166 12 179 45 11 30 6 90 -10 113 -15 21 -15 25 0 41 23 25 30 74 16 116 -17 53 -54 65 -190 65 l-110 0 0 -39z m177 -67 c7 -18 -7 -46 -25 -52 -8 -2 -12 9 -12 32 0 38 25 51 37 20z m-3 -150 c8 -20 -1 -34 -20 -34 -8 0 -14 10 -14 25 0 28 24 34 34 9z"/>
 <path d="M1495 280 l0 -190 70 0 70 0 0 190 0 190 -70 0 -70 0 0 -190z"/>
 <path d="M1745 323 c2 -82 1 -127 -2 -100 l-4 47 -45 0 -44 0 0 -90 0 -90 165 0 165 0 0 90 0 90 -44 0 -45 0 -4 -42 c-3 -24 -4 21 -2 100 l4 142 -74 0 -74 0 4 -147z"/>
 <path d="M2605 280 l0 -190 70 0 70 0 0 190 0 190 -70 0 -70 0 0 -190z"/>
 <path d="M2770 431 c0 -22 5 -43 10 -46 6 -3 10 -50 10 -105 0 -55 -4 -102 -10 -105 -5 -3 -10 -24 -10 -46 l0 -40 71 3 71 3 23 60 24 60 -6 -62 -6 -63 68 0 68 0 -7 61 c-3 34 -6 120 -6 190 l0 129 -63 0 -62 0 -27 -67 -27 -68 6 68 6 67 -67 0 -66 0 0 -39z"/>
 <path d="M54 315 c-23 -35 -10 -60 42 -80 l46 -17 -28 -29 c-15 -16 -38 -29 -50 -29 -27 0 -64 -44 -64 -75 0 -12 9 -34 21 -49 29 -37 89 -37 118 0 12 15 21 34 21 44 0 15 39 60 52 60 3 0 13 -18 23 -39 22 -49 41 -58 75 -33 47 35 39 51 -81 166 -120 114 -146 126 -175 81z"/>
 <path d="M819 233 c-114 -112 -126 -134 -90 -167 29 -26 53 -16 79 32 l24 43 23 -21 c12 -11 27 -38 34 -59 26 -89 151 -71 151 22 0 32 -39 77 -68 77 -21 0 -72 51 -57 56 52 19 80 42 83 66 3 27 -27 58 -57 58 -8 0 -63 -48 -122 -107z"/>
 </g>

</svg>